#!OML:ASF H:\MichaelJackson\Top Level 1\Subject 1\Session 1\male.ASF
:FULLY-SPECIFIED
:DEGREES
373
root 15.3752 9.07363 -28.0357 -166.145 71.0329 -165.839
lowerback 34.5596 5.45213 5.98534
upperback 13.1457 11.5827 8.74161
thorax -3.66591 6.41996 2.08336
lowerneck -7.7858 -13.9826 1.15536
upperneck 24.2352 -19.7217 5.52417
head 9.40079 -8.17892 -0.318232
rclavicle -5.24792e-014 -1.27222e-014
rhumerus 13.8702 15.9713 -90.7327
rradius 132.436
rwrist -34.681
rhand -23.6894 -19.9566
rfingers 7.12502
rthumb 2.77731 -49.9183
lclavicle -5.24792e-014 -1.27222e-014
lhumerus -63.2189 -9.33086 91.3956
lradius 42.0472
lwrist 8.25452
lhand -10.5451 12.7561
lfingers 7.12502
lthumb 15.4586 42.158
rfemur -96.2423 -8.17333 18.7888
rtibia 103.707
rfoot -7.32643 19.5703
rtoes -3.82467
lfemur -25.6297 -9.54487 13.2418
ltibia 120.594
lfoot 10.0992 -58.3786
ltoes 44.4203
374
root 15.4286 9.02162 -28.0155 -166.123 70.7994 -165.923
lowerback 34.7511 5.42439 5.90911
upperback 13.2719 11.5537 8.6749
thorax -3.59479 6.41846 2.05825
lowerneck -7.71361 -13.9225 1.25231
upperneck 24.2329 -19.6669 5.63873
head 9.3893 -8.13516 -0.283157
rclavicle 1.11319e-014 -9.70069e-014
rhumerus 13.894 15.8697 -91.1112
rradius 131.769
rwrist -34.7957
rhand -23.4337 -19.5621
rfingers 7.12502
rthumb 3.02429 -49.5204
lclavicle 1.11319e-014 -9.70069e-014
lhumerus -62.4439 -10.0002 92.1286
lradius 43.1514
lwrist 8.37285
lhand -11.7898 12.6855
lfingers 7.12502
lthumb 14.2595 42.176
rfemur -96.7293 -8.28083 18.9048
rtibia 104.461
rfoot -7.74785 19.3438
rtoes -3.91403
lfemur -25.4433 -9.9404 13.4745
ltibia 120.581
lfoot 9.6416 -58.6057
ltoes 44.5064
375
root 15.48 8.97484 -27.9965 -166.228 70.6416 -166.093
lowerback 34.9239 5.43682 5.75498
upperback 13.3898 11.5444 8.6126
thorax -3.54106 6.42217 2.06917
lowerneck -7.66303 -13.8311 1.32289
upperneck 24.2346 -19.5545 5.68836
head 9.37621 -8.07321 -0.260474
rclavicle 9.38264e-014 -4.29375e-014
rhumerus 13.9256 15.76 -91.48
rradius 131.114
rwrist -35.0512
rhand -23.1036 -19.1242
rfingers 7.12502
rthumb 3.34302 -49.0777
lclavicle 9.38264e-014 -4.29375e-014
lhumerus -61.6459 -10.6079 92.7133
lradius 44.2368
lwrist 8.94065
lhand -13.4361 12.6965
lfingers 7.12502
lthumb 12.6728 42.292
rfemur -97.1337 -8.28011 18.9369
rtibia 105.17
rfoot -8.18087 19.0472
rtoes -4.26338
lfemur -25.1486 -10.3206 13.5423
ltibia 120.58
lfoot 8.45218 -58.6877
ltoes 44.3396
376
root 15.5297 8.93296 -27.9788 -166.351 70.529 -166.236
lowerback 35.0604 5.47186 5.55946
upperback 13.4965 11.5449 8.56485
thorax -3.49739 6.42748 2.11348
lowerneck -7.61645 -13.7121 1.37305
upperneck 24.2363 -19.3911 5.6833
head 9.35776 -7.99508 -0.247
rclavicle 2.38542e-014 1.20861e-013
rhumerus 13.9948 15.7163 -91.7864
rradius 130.52
rwrist -35.5052
rhand -22.8991 -18.688
rfingers 7.12502
rthumb 3.54057 -48.6383
lclavicle 2.38542e-014 1.20861e-013
lhumerus -60.8438 -11.1487 93.1751
lradius 45.3047
lwrist 9.92963
lhand -15.3625 12.7606
lfingers 7.12502
lthumb 10.8151 42.4622
rfemur -97.4557 -8.19162 18.9422
rtibia 105.834
rfoot -8.62951 18.6792
rtoes -4.87759
lfemur -24.7558 -10.6687 13.5235
ltibia 120.587
lfoot 6.53827 -58.6084
ltoes 43.8916
377
root 15.5775 8.89598 -27.9618 -166.403 70.4313 -166.277
lowerback 35.1566 5.51476 5.36111
upperback 13.5764 11.5479 8.52521
thorax -3.47075 6.43102 2.16735
lowerneck -7.56734 -13.5749 1.41475
upperneck 24.2294 -19.1973 5.65606
head 9.33317 -7.90656 -0.235716
rclavicle 1.25632e-013 6.52014e-014
rhumerus 14.0796 15.76 -92.0044
rradius 130.095
rwrist -36.1851
rhand -22.8808 -18.5089
rfingers 7.12502
rthumb 3.55818 -48.459
lclavicle 1.25632e-013 6.52014e-014
lhumerus -60.0678 -11.6482 93.5353
lradius 46.3464
lwrist 11.1668
lhand -17.5207 12.7808
lfingers 7.12502
lthumb 8.73292 42.5802
rfemur -97.7133 -8.04466 18.964
rtibia 106.449
rfoot -9.03803 18.2595
rtoes -5.47467
lfemur -24.3165 -10.9641 13.4968
ltibia 120.601
lfoot 4.20422 -58.3717
ltoes 43.2903
378
root 15.624 8.8639 -27.9462 -166.376 70.3275 -166.204
lowerback 35.1959 5.54928 5.18304
upperback 13.6309 11.5386 8.48345
thorax -3.4473 6.4274 2.21617
lowerneck -7.51314 -13.4305 1.45176
upperneck 24.2045 -18.9963 5.64135
head 9.30314 -7.8152 -0.218399
rclavicle -3.81667e-014 8.90555e-014
rhumerus 14.1729 15.9049 -92.1079
rradius 129.873
rwrist -37.0137
rhand -23.1298 -18.5767
rfingers 7.12502
rthumb 3.31778 -48.5306
lclavicle -3.81667e-014 8.90555e-014
lhumerus -59.3248 -12.0973 93.7694
lradius 47.3593
lwrist 12.4393
lhand -19.6751 12.7602
lfingers 7.12502
lthumb 6.65346 42.6356
rfemur -97.902 -7.8816 19.0308
rtibia 107.015
rfoot -9.43706 17.8037
rtoes -6.23741
lfemur -23.8292 -11.2171 13.4766
ltibia 120.611
lfoot 1.62946 -57.9677
ltoes 42.6305
379
root 15.6687 8.8371 -27.9313 -166.187 70.1929 -165.934
lowerback 35.1863 5.56289 5.05098
upperback 13.6532 11.5114 8.43936
thorax -3.43262 6.41437 2.24779
lowerneck -7.45512 -13.2876 1.48727
upperneck 24.144 -18.8069 5.66785
head 9.26519 -7.72807 -0.188191
rclavicle 1.52667e-013 1.54257e-013
rhumerus 14.2519 16.1421 -92.089
rradius 129.842
rwrist -37.8328
rhand -23.5928 -18.8151
rfingers 7.12502
rthumb 2.87062 -48.7755
lclavicle 1.52667e-013 1.54257e-013
lhumerus -58.6383 -12.5052 93.8993
lradius 48.3395
lwrist 13.6477
lhand -21.8402 12.6187
lfingers 7.12502
lthumb 4.56312 42.5495
rfemur -98.0177 -7.72435 19.1804
rtibia 107.526
rfoot -9.80255 17.3389
rtoes -6.93699
lfemur -23.3404 -11.399 13.5545
ltibia 120.608
lfoot -0.928937 -57.4486
ltoes 41.9871
380
root 15.7122 8.81598 -27.9174 -165.919 70.032 -165.551
lowerback 35.1297 5.55579 4.94512
upperback 13.6493 11.4587 8.37728
thorax -3.42044 6.38846 2.25912
lowerneck -7.40228 -13.1536 1.52246
upperneck 24.0333 -18.6457 5.75924
head 9.21881 -7.65141 -0.139919
rclavicle -7.95139e-015 6.20208e-014
rhumerus 14.3166 16.4377 -91.9643
rradius 129.964
rwrist -38.4831
rhand -24.1587 -19.115
rfingers 7.12502
rthumb 2.32408 -49.0821
lclavicle -7.95139e-015 6.20208e-014
lhumerus -58.0055 -12.8602 93.9051
lradius 49.2821
lwrist 14.6284
lhand -23.8454 12.3647
lfingers 7.12502
lthumb 2.62667 42.3283
rfemur -98.0502 -7.59826 19.3931
rtibia 107.98
rfoot -10.155 16.889
rtoes -7.59082
lfemur -22.8455 -11.5102 13.7013
ltibia 120.582
lfoot -3.31697 -56.8291
ltoes 41.4422
